<svg xmlns="http://www.w3.org/2000/svg" width="640" height="360" viewBox="0 0 640 360" role="img" aria-label="UserDefaults Storage">
  <defs>
    <linearGradient id="bgL" x1="0.26" y1="0" x2="0.74" y2="1">
      <stop offset="0" stop-color="#ffffff"></stop><stop offset="0.55" stop-color="#faf8f4"></stop><stop offset="1" stop-color="#f4f1ec"></stop>
    </linearGradient>
    <radialGradient id="glowL">
      <stop offset="0" stop-color="#f05138" stop-opacity="0.1"></stop><stop offset="0.7" stop-color="#f05138" stop-opacity="0"></stop><stop offset="1" stop-color="#f05138" stop-opacity="0"></stop>
    </radialGradient>
  </defs>
  <rect x="0.5" y="0.5" width="639" height="359" rx="12" fill="url(#bgL)" stroke="#d8d2c8"></rect>
  <ellipse cx="320" cy="137" rx="210" ry="160" fill="url(#glowL)"></ellipse>
  <g transform="translate(254 69.1) scale(1.375)">
    <path d="M18 22 h60 a4 4 0 0 1 4 4 v8 a4 4 0 0 1 -4 4 h-60 a4 4 0 0 1 -4 -4 v-8 a4 4 0 0 1 4 -4 Z" stroke="#f05138" stroke-width="5" fill="none" stroke-linecap="round" stroke-linejoin="round"></path><path d="M20 38 v30 a6 6 0 0 0 6 6 h44 a6 6 0 0 0 6 -6 v-30" stroke="#f05138" stroke-width="5" fill="none" stroke-linecap="round" stroke-linejoin="round"></path><path d="M38 52 h20" stroke="#d13a22" stroke-width="6" fill="none" stroke-linecap="round" stroke-linejoin="round"></path>
  </g>
  <text x="320" y="255.6" text-anchor="middle" font-family="-apple-system,&#39;SF Pro Display&#39;,&#39;Segoe UI&#39;,sans-serif" font-size="30" font-weight="600" letter-spacing="-0.6" fill="#1a1d23">UserDefaults Storage</text>
  <text x="320" y="284.1" text-anchor="middle" font-family="-apple-system,&#39;SF Pro Display&#39;,&#39;Segoe UI&#39;,sans-serif" font-size="15" letter-spacing="-0.075" fill="#6b7684">Preferences and app state</text>
</svg>
