<svg xmlns="http://www.w3.org/2000/svg" width="640" height="360" viewBox="0 0 640 360" role="img" aria-label="Biometrics &amp; Secure Enclave">
  <defs>
    <linearGradient id="bgD" x1="0.26" y1="0" x2="0.74" y2="1">
      <stop offset="0" stop-color="#1d222c"></stop><stop offset="0.55" stop-color="#12151c"></stop><stop offset="1" stop-color="#0d1117"></stop>
    </linearGradient>
    <radialGradient id="glowD">
      <stop offset="0" stop-color="#f05138" stop-opacity="0.18"></stop><stop offset="0.7" stop-color="#f05138" stop-opacity="0"></stop><stop offset="1" stop-color="#f05138" stop-opacity="0"></stop>
    </radialGradient>
  </defs>
  <rect x="0.5" y="0.5" width="639" height="359" rx="12" fill="url(#bgD)" stroke="#3d4450"></rect>
  <ellipse cx="320" cy="137" rx="210" ry="160" fill="url(#glowD)"></ellipse>
  <g transform="translate(254 59.3) scale(0.48209)">
      <path d="M13.3196 176.367C16.5423 175.391 18.2024 172.07 17.2259 167.969C14.0032 155.664 12.3431 140.918 12.8313 123.828C12.929 119.824 10.5852 117.48 7.26493 117.285C2.96806 116.992 0.62431 119.727 0.331341 123.145C-0.547565 137.598 0.62431 155.176 5.21415 171.582C6.28837 175.586 9.804 177.441 13.3196 176.367ZM8.33915 102.148C11.5618 103.32 15.6634 102.051 17.2259 97.7539C37.2454 40.5273 85.9759 12.5977 135.195 12.5977C158.437 12.5977 176.308 17.6758 190.761 26.2695C194.472 28.5156 198.769 28.2227 200.331 24.6094C202.089 20.7031 200.038 18.1641 197.206 16.4063C179.335 4.98047 159.902 2.84217e-14 135.195 2.84217e-14C79.4329 2.84217e-14 27.6751 29.9805 5.1165 91.6016C3.06572 97.0703 5.1165 100.879 8.33915 102.148ZM267.909 146.582C271.523 146.582 274.159 143.652 273.769 139.746C268.495 90.1367 251.113 56.9336 222.597 32.3242C219.472 29.5898 215.468 30.1758 213.515 32.4219C211.269 34.8633 211.074 38.5742 214.394 41.6016C239.687 64.8438 257.46 95.0195 261.659 139.941C262.05 143.652 264.296 146.582 267.909 146.582Z" fill="#f05138"></path>
      <path d="M28.7493 212.793C30.8001 215.82 35.097 216.504 38.222 213.77C47.1087 206.348 51.6009 194.043 51.5032 181.934C51.4056 164.355 43.886 155.859 43.886 133.691C43.886 84.8633 84.9993 43.75 133.925 43.75C194.277 43.75 232.265 92.5781 232.558 163.77C232.558 190.82 228.261 210.938 223.281 223.73C221.718 227.344 223.183 231.055 226.113 232.422C229.14 233.789 233.437 232.617 234.804 228.906C240.077 214.355 244.96 192.48 244.96 163.672C244.96 85.2539 201.894 31.3477 133.925 31.3477C78.1634 31.3477 31.4837 78.0273 31.4837 133.691C31.4837 154.492 39.1985 168.555 39.3938 181.836C39.3938 190.332 36.0735 198.73 30.0188 204.004C27.3821 206.25 26.8938 210.156 28.7493 212.793Z" fill="#f2994a"></path>
      <path d="M83.7298 169.336C80.3118 160.449 75.3313 148.926 75.3313 135.059C75.3313 100.781 101.015 75.0977 135.195 75.0977C147.792 75.0977 153.456 76.9531 164.101 82.5195C167.616 84.2773 170.839 83.2031 172.109 80.7617C173.769 77.7344 173.183 73.9258 169.081 71.4844C160.292 66.1133 147.695 62.5 135.195 62.5C94.0813 62.5 62.7337 93.8477 62.7337 135.059C62.7337 149.512 66.7376 162.402 71.5227 174.121C73.1829 177.93 76.6009 179.59 80.4095 178.027C83.7298 176.66 84.9993 173.047 83.7298 169.336Z" fill="#f05138"></path>
      <path d="M57.1673 235.938C66.4446 231.152 79.1399 214.941 82.5579 201.758C83.4368 198.438 81.8743 194.824 78.4563 193.652C75.2337 192.676 71.9134 194.434 70.7415 198.145C67.3235 209.863 60.6829 218.359 51.5032 224.707C47.4993 227.441 47.011 231.055 48.2806 233.691C49.6477 236.426 53.1634 237.988 57.1673 235.938ZM183.339 99.0234C195.449 116.797 201.406 141.797 201.406 170.898C201.406 201.953 192.909 231.641 179.042 249.512C176.991 252.246 176.601 256.055 179.14 258.496C181.777 261.133 186.366 261.035 188.71 258.008C204.14 237.012 213.808 204.492 213.808 170.508C213.808 134.57 205.995 110.84 194.374 92.4805C192.031 88.6719 188.124 87.6953 184.999 89.3555C181.777 91.1133 180.8 95.2148 183.339 99.0234Z" fill="#f2994a"></path>
      <path d="M83.4368 252.344C103.652 236.035 114.882 210.059 114.687 181.152C114.491 159.375 106.777 145.801 106.777 133.496C106.777 117.285 118.202 106.445 134.609 106.445C159.511 106.445 168.691 133.691 169.277 169.336C170.253 208.887 155.898 241.602 137.343 258.105C134.706 260.449 134.12 263.965 135.976 266.602C138.027 269.629 142.421 270.215 145.351 267.48C165.175 249.512 181.288 210.84 181.093 168.555C180.898 125.488 168.3 94.043 134.609 94.043C111.855 94.043 94.472 109.375 94.472 132.422C94.472 146.289 101.991 163.574 102.089 181.152C102.284 206.152 92.8118 228.418 75.6243 242.48C72.4993 245.02 72.1087 248.633 73.9642 251.465C76.2102 254.59 80.3118 254.98 83.4368 252.344Z" fill="#f05138"></path>
      <path d="M112.343 262.5C122.304 255.176 134.12 239.746 139.589 222.461C140.37 219.824 139.784 215.723 136.269 214.551C132.558 213.281 129.238 215.039 128.163 218.066C121.523 235.645 113.32 245.801 104.726 252.344C101.894 254.59 101.015 258.398 102.968 261.23C104.824 264.355 109.12 264.844 112.343 262.5ZM146.62 194.238C150.331 177.734 148.769 155.371 142.324 137.207C140.859 132.91 137.538 131.348 134.12 132.52C130.8 133.496 128.945 136.719 130.116 140.527C136.171 158.203 137.538 177.148 134.316 192.48C133.632 195.898 134.999 199.121 138.808 199.805C142.519 200.488 145.839 198.34 146.62 194.238Z" fill="#f2994a"></path>
  </g>
  <text x="320" y="244.8" text-anchor="middle" font-family="-apple-system,&#39;SF Pro Display&#39;,&#39;Segoe UI&#39;,sans-serif" font-size="30" font-weight="600" letter-spacing="-0.6" fill="#ffffff">Biometrics &amp; Secure Enclave</text>
  <text x="320" y="273.3" text-anchor="middle" font-family="-apple-system,&#39;SF Pro Display&#39;,&#39;Segoe UI&#39;,sans-serif" font-size="15" letter-spacing="-0.075" fill="#8b949e">Protect keychain items with Face ID / Touch ID</text>
  <text x="320" y="295.0" text-anchor="middle" font-family="-apple-system,&#39;SF Pro Display&#39;,&#39;Segoe UI&#39;,sans-serif" font-size="15" letter-spacing="-0.075" fill="#8b949e">and generate hardware-backed cryptographic keys.</text>
</svg>
